<svg xmlns="http://www.w3.org/2000/svg" viewBox="0 0 9282.89 3010.67"><script xmlns=""/><path d="M5579.71 1569.2h95.19l40.79 4.56 77.06 9.12 54.39 9.12 63.46 36.49 31.73 9.12 13.6 4.56 9.07 18.25 18.13 9.12h31.73l22.66 22.81 31.73 13.68 18.13 27.37 13.6 18.25 36.26 18.25 40.79 59.3 36.26 45.62 13.6 22.81 4.53-36.49-4.53-13.68v-168.78l18.13-45.62 36.26-18.25h40.79l13.6 4.56h54.39l31.73-4.56h63.46l22.66 9.12 4.53-9.12 27.2 4.56h439.67l90.65-4.56 36.26 4.56 22.66-4.56v22.81l18.13-13.68h45.33l72.52 18.25v13.68l45.33 9.12 67.99 36.49 27.2 27.37v22.81l18.13 4.56 18.13 22.81 4.53 36.49 9.07-4.56 4.53-36.49-9.07-4.56 9.07-18.25 4.53-22.81-4.53-9.12v-54.74l9.07-22.81 18.13-18.25 22.66-9.12h58.92l31.73 9.12h36.26l18.13-4.56h172.24l49.86-4.56 49.86 4.56 235.7-4.56 63.46 9.12h13.6l149.58-4.56 9.07 4.56h40.79l49.86-9.12 36.26 13.68 22.66 13.68-4.53 41.05v104.92l9.07 45.62-9.07 86.67-4.53 59.3-27.2 9.12h-217.57l-9.07-9.12-9.07 18.25h-131.45l-4.53-13.68-18.13 4.56-27.2 4.56-22.66 4.56-58.92-4.56-58.92 4.56-36.26-4.56-13.6 13.68 13.6 4.56-4.53 45.62 4.53 4.56-4.53 45.62 49.86 13.68-4.53 27.37 18.13-22.81 49.86-13.68 40.79 4.56 31.73 4.56h104.25l13.6 9.12 13.6-13.68 18.13-4.56h95.19l22.66 13.68 31.73 4.56 18.13 41.05v54.74l4.53 41.05-4.53 9.12v45.62l-4.53 59.3v59.3l-31.73 9.12-27.2 9.12-22.66-4.56h-77.06l-40.79-4.56-67.99 9.12h-199.44l-27.2-9.12-4.53 18.25v104.92l4.53 18.25h31.73v13.68l45.33-9.12h240.23l203.97 4.56 90.65 4.56 9.07 9.12 4.53 63.86 4.53 31.93v177.9l-9.07 41.05-9.07 18.25-36.26 9.12-63.46-4.56h-58.92l-36.26 4.56h-81.59l-99.72-4.56-27.2-4.56-18.13 9.12h-181.31l-13.6-4.56h-36.26l-27.2 4.56-4.53-4.56h-194.9l-217.57 4.56h-208.5l-22.66-18.25-4.53 18.25h-67.99v-9.12l-36.26 9.12h-22.66l-22.66-27.37v-82.11l4.53-82.11-9.07-59.3 4.53-86.67-13.6-41.05-9.07-18.25v-13.68l-22.66-9.12-45.33-13.68h-13.6l-13.6 4.56-18.13-4.56-9.07 4.56h-213.04l9.07 22.81h-18.13l13.6 27.37-4.53 22.81v18.25l4.53 18.25-4.53 59.3-9.07 13.68 4.53 18.25 4.53 9.12 4.53 91.23 4.53 41.05-13.6 27.37-9.07 45.62-13.6 13.68h-77.06l-4.53-22.81h-9.07l-4.53 22.81H6527l-22.66-4.56h-31.73l-22.66 4.56-13.6-9.12-13.6 9.12-9.07-4.56v-13.68l-13.6 4.56-4.53 13.68-27.2-4.56-4.53 4.56H6250.5l-13.6-22.81v-59.3l-4.53-27.37v-50.18l-4.53-68.42 4.53-36.49-9.07-9.12-18.13 27.37-13.6 22.81h-13.6v22.81l-13.6 4.56-18.13 45.62-36.26 9.12-58.92 54.74-54.39 41.05-36.26 18.25-27.2-4.56v22.81h-49.86v18.25l-81.59 22.81-18.13-13.68-9.07 22.81h-67.99l-49.86 4.56-27.2 9.12-18.13-4.56-95.19-4.56-54.39-9.12-18.13-4.56-40.79-13.68-31.73-4.56v-13.68h-36.26l-13.6-22.81-13.6-4.56h-22.66l-45.33-31.93-49.86-27.37-22.66-13.68-22.66-22.81-22.66-18.25v-9.12h-13.6l-13.6-27.37-27.2-18.25-40.79-63.86-4.53-31.93-9.07 4.56v63.86l-4.53 27.37v50.18l9.07 22.81v27.37l-9.07 9.12v22.81l9.07 13.68v27.37l-22.66 13.68-31.73 9.12h-99.72l-9.07-4.56h-104.25l-90.65-4.56-22.66-13.68-4.53-18.25v-41.05l9.07-18.25-18.13-13.68v-13.68h9.07v-114.04l9.07-4.56-9.07-13.68-4.53-250.89v-104.92l-13.6 13.68-9.07 22.81-4.53 36.49-27.2 82.11-40.79 168.78-13.6 45.62-9.07 63.86-22.66 36.49-4.53 50.18-9.07 13.68-4.53 31.93-13.6 27.37-13.6 13.68h-22.66l-4.53 9.12-22.66-4.56-22.66 4.56h-181.31l-27.2-18.25-18.13-18.25-4.53-45.62-9.07-4.56-9.07-54.74-31.73-86.67-22.66-100.36v-22.81l9.07-22.81-18.13 4.56-18.13-50.18-4.53-9.12-4.53-68.42-4.53-18.25h-13.6v-31.93l-13.6-45.62-4.53-4.56v-54.74h-13.6v191.59l4.53 41.05-4.53 31.93v54.74l-4.53 18.25v45.62l9.07 132.29 4.53 31.93-13.6 45.62 13.6 4.56-4.53 22.81-13.6 31.93-36.26-4.56-13.6 4.56-4.53-22.81-9.07 4.56-9.07 18.25-90.65-4.56-113.32 4.56h-54.39l-36.26-18.25-9.07-9.12-4.53-50.18 9.07-86.67v-164.22l-4.53-50.18v-91.23l9.07-132.29v-63.86l-13.6-77.55 4.53-27.37 4.53-18.25-4.53-18.25v-114.04l9.07-27.37h-9.07l4.53-31.93 4.53-9.12h-9.07l-4.53 27.37-13.6 18.25h-13.6v31.93h-18.13v22.81l-18.13 18.25-18.13 50.18-9.07 9.12-4.53 18.25-9.07 4.56-4.53 13.68h-13.6v22.81l-36.26-4.56v9.12h13.6l-4.53 27.37-31.73 63.86-31.73 36.49-4.53 13.68-9.07 4.56 4.53 9.12-22.66 45.62-27.2 41.05-36.26 63.86-4.53 36.49-13.6 22.81 9.07 22.81 4.53 18.25-4.53 13.68 4.53 18.25-18.13 13.68 18.13 9.12-4.53 22.81h-9.07l9.07 50.18v27.37l-9.07 18.25 13.6 4.56-13.6 27.37 18.13 4.56-4.53 18.25v31.93l-9.07 18.25-4.53 54.74-22.66 9.12-45.33-4.56-18.13 4.56h-95.19l-31.73-13.68-18.13 9.12-54.39 4.56-49.86-9.12-4.53 9.12h-27.2l-4.53-4.56h-49.86l-13.6 4.56-9.07-22.81v-36.49l4.53-9.12-4.53-50.18v-237.2l-4.53-72.99-31.73-45.62-49.86-100.36-18.13-22.81v-13.68h-13.6l-18.13-31.93-22.66-45.62v-22.81l-27.2-9.12-18.13-36.49 4.53-27.37-4.53-18.25-18.13 4.56-18.13-4.56v784.6l-22.66 13.68h-13.6l-27.2 4.56-67.99-4.56-18.13 4.56h-140.51l-149.58-9.12-22.66-22.81v-9.12h-22.66l-4.53-31.93-36.26-68.42-4.53-22.81-13.6 4.56-27.2-41.05-36.26-59.3v-22.81l-18.13-4.56-9.07-27.37-22.66-13.68-4.53-9.12-4.53-41.05-27.2-22.81-31.73-50.18-40.79-50.18-22.66-31.93-27.2-50.18v-31.93l-22.66-13.68-4.53-9.12-4.53 4.56v22.81l4.53 13.68-9.07 82.11-13.6 18.25v18.25l13.6 4.56 4.53 54.74 4.53 22.81-4.53 4.56 4.53 31.93-4.53 72.99v82.11l-9.07 45.62 13.6 9.12v27.37l-4.53 9.12v50.18l-4.53 50.18-9.07 13.68-22.66-4.56-18.13 4.56h-163.18l-31.73-9.12-18.13 9.12h-176.77v-27.37l-13.6 4.56-9.07 18.25h-45.33l-31.73 4.56h-54.39l-104.25-13.68-9.07 9.12h-22.66l-22.66-36.49-22.66-86.67-13.6-36.49-9.07-22.81 18.13-18.25-49.86-4.56h-40.79l-18.13 4.56-4.53-13.68-22.66 4.56-4.53 4.56h-72.52l-36.26 4.56-36.26-13.68v9.12l-36.26-4.56h-90.65v-13.68h-9.07l-4.53 22.81-22.66-4.56-4.53 4.56h-27.2v54.74l-18.13 50.18-22.66 68.42-18.13 22.81-31.73 9.12h-36.26l-13.6-9.12-22.66 4.56-31.73 4.56-18.13-9.12v-13.68l-9.07 4.56-9.07 18.25h-27.2l-4.53-4.56-145.05 4.56-9.07-18.25-22.66 9.12v-13.68l-27.2 13.68v-72.99l22.66-36.49 13.6-9.12 4.53-68.42 36.26-68.42 63.46-196.15 18.13-18.25h4.53l18.13-72.99 36.26-91.23 31.73-82.11 40.79-95.79L335.37 1998l58.92-145.97 49.86-123.16 18.13-41.05 9.07-45.62 27.2-18.25 172.24-4.56 58.92-4.56h194.9l36.26 13.68V1665H979l9.07 41.05 22.66 27.37-9.07 18.25 18.13 18.25 49.86 150.53 13.6 22.81v27.37l13.6 4.56 13.6 41.05v13.68l9.07 4.56 9.07 31.93 9.07 13.68 9.07 41.05 22.66 45.62-4.53 13.68 22.66 22.81 13.6 45.62 18.13 68.42 40.79 91.23 9.07 27.37 4.53 41.05 13.6 4.56v36.49l18.13 9.12 9.07 22.81v18.25l9.07 4.56 9.07 41.05v31.93h13.6v-45.62l9.07-63.86 4.53-59.3 18.13-13.68-4.53-9.12-18.13-4.56-4.53-31.93-4.53-9.12 9.07-31.93h13.6l-13.6-27.37 4.53-18.25-9.07-31.93-4.53-155.09 4.53-36.49v-205.27l4.53-246.33 9.07-18.25 27.2-13.68 40.79-9.12 108.78 4.56 49.86 4.56 49.86-9.12h36.26l27.2 4.56h63.46l27.2-4.56 18.13 22.81 4.53 31.93 18.13 4.56 4.53 18.25 22.66 18.25 18.13 50.18 18.13 13.68v31.93h27.2l13.6 22.81v31.93l18.13 4.56 4.53 4.56v31.93l18.13 4.56 13.6 41.05h13.6l4.53 13.68 13.6 4.56 9.07 45.62h13.6l9.07 18.25 13.6 4.56 9.07 41.05 22.66 27.37 9.07 4.56 9.07 45.62 18.13 9.12 9.07 18.25 22.66 22.81 4.53 22.81 27.2-9.12-4.53-31.93 13.6-31.93-4.53-4.56-4.53-141.41-4.53-68.42v-136.85l4.53-59.3v-50.18l-4.53-36.49 18.13-27.37 27.2-13.68h158.64l99.72 4.56 149.58-4.56 45.33 4.56h45.33l22.66-4.56v18.25h31.73l9.07 13.68v9.12l22.66 9.12v31.93h18.13l13.6 31.93 9.07 13.68v22.81l-4.53 4.56 22.66 9.12 9.07 18.25 4.53 27.37 13.6 4.56 13.6 36.49 13.6 22.81v22.81h13.6v13.68l18.13 4.56 9.07 22.81 4.53 45.62h22.66l9.07 9.12 18.13 45.62 13.6 27.37 13.6 4.56v-22.81l31.73-36.49 40.79-72.99 63.46-127.73 40.79-63.86 4.53-18.25h18.13l4.53-13.68h27.2v-41.05l-4.53-13.68 13.6-22.81 4.53-18.25 18.13-9.12 163.18-4.56 4.53-4.56h267.43l40.79 9.12 45.33-4.56 271.96 4.56 18.13 31.93-4.53 9.12 4.53 54.74h13.6v31.93l18.13 22.81-4.53 13.68 4.53 22.81-9.07 13.68 13.6 4.56 9.07 54.74 22.66 54.74v50.18l-4.53 13.68 22.66 4.56 9.07 36.49 13.6 22.81v41.05l-22.66-4.56v13.68l13.6-4.56 9.07 4.56 13.6 41.05 4.53 41.05 13.6 13.68v27.37l-9.07 18.25h18.13l9.07 22.81v41.05l18.13-27.37 49.86-214.4 13.6-50.18 13.6-13.68h9.07l18.13-114.04 36.26-150.53 9.07-13.68 9.07-72.99h9.07l4.53-22.81 36.26-18.25h31.73v18.25h13.6v-18.25l63.46-9.12h249.3l9.07 13.68 4.53-4.56h99.72l22.66 31.93-9.07 22.81 9.07 22.81-9.07 22.81 4.53 41.05-4.53 22.81h9.07v31.93l-9.07 27.37v36.49h13.6l22.66-18.25 13.6-13.68 27.2-41.05 45.33-50.18 22.66-22.81 45.33-27.37 40.79-27.37 13.6-13.68 27.2-13.68 36.26-31.93 126.91-31.93 135.98-22.81Zm1323.53 63.86v22.81h4.53v-22.81zm-6286.8 45.61v22.81h22.66v-22.81zm7220.53 9.13v22.81h22.66v-22.81zm-3236.32 31.93v22.81l18.13-4.56v-13.68l-18.13-4.56Zm-1350.73 45.62-4.53 9.12h18.13v-9.12zm308.22 0-9.07 9.12 4.53 18.25 18.13-18.25-4.53-9.12h-9.07ZM2221 1792.72l4.53 22.81h4.53v-22.81h-9.07Zm4025.01 45.61 4.53 18.25 4.53-18.25H6246Zm-5838.07 36.49-4.53 13.68 18.13-9.12zm4029.53 41.06 4.53 9.12zm575.65 9.12 4.53 9.12zm3354.17 22.81 4.53 9.12zm-1586.43 22.81-22.66 13.68-72.52 4.56-13.6 9.12v22.81l13.6 18.25v72.99l-4.53 41.05 22.66 45.62 18.13 18.25 18.13 9.12h27.2l27.2-13.68h117.85l13.6-4.56 31.73 18.25h13.6l9.07-13.68 54.39-18.25 31.73-63.86v-50.18l-13.6-45.62-58.92-54.74h-22.66l-18.13 9.12-31.73 4.56h-58.92l-40.79-9.12-18.13-13.68h-22.66Zm-4564.39 9.12 4.53 9.12zm3381.37 18.25-40.79 18.25-45.33 9.12-22.66 13.68-18.13 27.37-18.13 9.12-18.13 36.49-22.66 100.36-9.07 77.55-9.07 18.25 9.07 54.74 36.26 136.85 9.07 31.93 49.86 9.12 40.79 36.49 9.07 4.56 67.99 4.56 4.53 4.56h72.52l22.66-22.81 45.33-13.68 31.73-31.93 22.66-31.93 40.79-13.68-4.53-36.49-4.53-31.93 13.6-22.81 4.53-86.67 4.53-4.56v-36.49l-18.13-41.05-13.6-77.55-22.66-41.05-49.86-54.74-49.86-36.49-27.2-9.12h-90.65Zm-2869.18 36.49-4.53 18.25h18.13l4.53-13.68-18.13-4.56Zm1101.44 27.37v13.68l18.13-4.56 4.53-9.12zm-3322.44 22.81 4.53 18.25 18.13 4.56v-22.81zm2071.42 36.49v18.25l9.07-9.12-9.07-9.12Zm-1871.98 9.12-18.13 22.81-36.26 77.55-18.13 91.23-40.79 31.93 9.07 31.93 4.53 54.74 22.66 4.56h54.39l54.39 13.68 27.2-9.12h40.79l22.66-13.68-9.07-45.62-36.26-86.67-40.79-123.16-4.53-31.93-18.13-18.25zm-398.88 9.13v13.68h22.66l-18.13-13.68zm7152.54 13.68-13.6 41.05-13.6 63.86-22.66 36.49-77.06 50.18 9.07 18.25 18.13 13.68 31.73 13.68 27.2 31.93 31.73 109.48 18.13 9.12v-141.41l13.6-31.93v-104.92l-4.53-13.68-9.07-86.67-9.07-9.12Zm-140.51 27.37v31.93l22.66-13.68v-18.25zm-3349.64 0-22.66 4.56v31.93l18.13-4.56 22.66-27.37zm2579.08 45.62 4.53 9.12zm-262.89 18.25v22.81l18.13-4.56-9.07-18.25h-9.07Zm-2316.19 36.49 4.53 18.25 4.53-13.68-9.07-4.56Zm657.24 0 4.53 9.12zm-2080.49 31.93 4.53 9.12zm4.53 13.68-9.07 9.12h18.13v-9.12h-9.07Zm208.5 63.87v13.68l13.6-4.56v-9.12zm2379.65 0-4.53 22.81h18.13l9.07-18.25-22.66-4.56Zm2896.37 9.12 4.53 9.12zm-4863.55 9.12-13.6 9.12 4.53 22.81 18.13 9.12v-41.05h-9.07Zm4863.55 9.13v13.68h9.07l-4.53-13.68h-4.53Zm-6182.55 4.56-13.6 13.68 27.2-4.56v-9.12zm969.99 31.93-18.13 18.25v9.12l22.66-4.56 4.53-18.25-9.07-4.56Zm2424.97 9.12-9.07 9.12v31.93l27.2-4.56 4.53-9.12v-27.37zm983.59 0 4.53 18.25h18.13l4.53-13.68-27.2-4.56Zm1019.85 4.56-4.53 22.81 18.13-9.12-4.53-13.68h-9.07Zm-5561.58 27.37-13.6 18.25 18.13 4.56 4.53-22.81h-9.07Zm271.96 31.94v18.25l18.13-4.56v-13.68h-18.13Zm2429.51 54.73-9.07 13.68h9.07l4.53 27.37 18.13-9.12v-22.81l-9.07-9.12h-13.6Zm-4269.77 54.74 4.53 9.12zm1228.35 22.81v18.25l4.53-18.25zm2597.22 9.13 4.53 9.12zm3920.75 41.05 4.53 18.25 4.53-18.25h-9.07Zm-4627.85 13.68 4.53 9.12zm-752.42 82.11-4.53 22.81h22.66l-4.53-18.25zm-203.97 4.57 4.53 18.25 4.53-13.68-9.07-4.56Zm-2216.47 9.12-4.53 9.12h9.07l-4.53-9.12Zm13.6 0 4.53 9.12zm-40.8 9.12v13.68h22.66l-9.07-13.68h-13.6Zm6499.84 54.74 4.53 9.12zm-4020.47 13.69-4.53 18.25 13.6 9.12v-22.81zm4011.4 9.12 4.53 9.12zm40.8 0 4.53 9.12zm-6513.44 9.12 4.53 9.12zm3698.66 9.13v13.68l13.6-4.56zm117.84-4.57-9.07 9.12h18.13l-9.07-9.12ZM4632.38 132.29h67.99l31.73 9.12 4.53 18.25 13.6-4.56 9.07-9.12 18.13 4.56h27.2l27.2 13.68 36.26 4.56 13.6 18.25 31.73-4.56 13.6 13.68 22.66 4.56 4.53 9.12 13.6-4.56 49.86 27.37 31.73 31.93 36.26 18.25 18.13 22.81h9.07l4.53 18.25 13.6 13.68 18.13 9.12 4.53 22.81 18.13 9.12 13.6 27.37v13.68l13.6-4.56 4.53-31.93-4.53-13.68 9.07-22.81 13.6-4.56-13.6-9.12v-41.05l13.6-22.81-13.6-4.56V214.4l36.26-41.05h67.99l4.53 4.56 194.9-4.56 58.92-4.56 4.53 4.56h45.33l36.26 18.25-4.53 22.81h9.07l4.53 18.25v168.78l-9.07 36.49h9.07v13.68h-18.13l13.6 22.81 4.53 4.56v41.05l-9.07 4.56 9.07 9.12v36.49l-13.6 13.68 9.07 22.81 4.53 9.12-4.53 86.67 4.53 45.62-9.07 22.81 9.07 22.81v22.81h-13.6l13.6 18.25-4.53 22.81 4.53 22.81v45.62l-4.53 13.68 22.66 36.49 36.26 72.99 36.26 41.05 4.53 9.12h86.12l4.53 4.56 36.26-4.56 36.26-13.68 18.13-4.56 18.13 9.12 4.53 13.68v-22.81l-22.66-4.56 9.07-18.25 22.66-27.37 22.66-54.74 18.13-36.49 4.53-95.79 9.07-27.37-9.07-9.12V214.4l27.2-31.93 22.66-9.12H6246l54.39-4.56h176.77l117.85 4.56h349.01l18.13-4.56h31.73l4.53 9.12 31.73-4.56 22.66 4.56h40.79l40.79-9.12h126.91l90.65 4.56h190.37l63.46-4.56h58.92l18.13 4.56h149.58l13.6 9.12 4.53-4.56 231.17-4.56h185.84l22.66-9.12 72.52 4.56 36.26 4.56h81.59l18.13 9.12v27.37l9.07 4.56 9.07 22.81-13.6 27.37h13.6l-4.53 27.37-4.53 18.25 9.07 9.12 4.53 45.62-4.53 45.62v72.99l-4.53 4.56-9.07 41.05-13.6 13.68-36.26 4.56-13.6-4.56-18.13 4.56h-86.12l-49.86-9.12-13.6 9.12-45.33 4.56h-99.72l-40.79-13.68-4.53 9.12h-163.18l-18.13-4.56-18.13 4.56-4.53 118.6-22.66 13.68 18.13-4.56h104.25l-4.53 22.81 22.66-13.68 18.13-9.12h95.19l9.07 13.68 27.2-13.68 49.86-4.56 31.73 9.12 13.6 4.56 18.13-9.12 36.26-4.56 40.79 4.56 27.2 13.68 13.6 31.93-4.53 18.25-4.53 9.12v36.49l4.53 27.37v50.18l9.07 9.12-4.53 22.81h-9.07l4.53 31.93 4.53 4.56 4.53 36.49-18.13 27.37h-13.6v13.68l-27.2-4.56-45.33-18.25-4.53 22.81h-326.35l-40.79-4.56-4.53 4.56h-22.66v54.74l-9.07 9.12 18.13 22.81-4.53 31.93-4.53 22.81h40.79l4.53 4.56h77.06l49.86 9.12 167.71-13.68h154.11l31.73 27.37 4.53-22.81 18.13-4.56h45.33l31.73 13.68h4.53l9.07 72.99v45.62l-4.53 36.49v104.92l-4.53 22.81v45.62l-31.73 9.12-27.2 9.12H8299.3l-77.06-4.56-58.92 4.56h-117.85l-13.6-9.12-95.19 4.56-63.46-9.12-9.07 9.12-45.33-4.56-9.07 4.56h-222.1l-27.2-4.56-31.73 4.56h-40.79l-40.79-13.68-18.13-27.37-4.53-150.53v-114.04l4.53-27.37-4.53-36.49 9.07-63.86v-31.93l4.53-9.12h-9.07l-4.53-141.41 4.53-63.86v-36.49l13.6-22.81-4.53-4.56-18.13-82.11 4.53-13.68 4.53-100.36-72.52 4.56-13.6 4.56-9.07-4.56-77.06-4.56-18.13-9.12v-18.25h-13.6v22.81l-18.13 9.12-40.79-4.56v27.37l-4.53 4.56v41.05l-13.6 36.49 13.6 9.12-4.53 18.25-4.53 141.41 13.6 18.25v36.49l4.53 13.68-13.6 22.81v22.81l9.07 4.56-9.07 22.81v164.22l4.53 4.56 4.53 45.62-9.07 31.93-31.73 9.12-4.53 9.12 40.79 4.56-4.53 18.25-4.53 31.93 13.6 63.86-9.07 45.62 4.53 9.12v45.62l-9.07 13.68h-22.66l4.53 13.68-22.66 9.12h-63.46l-45.33 4.56-40.79-4.56-18.13-13.68-4.53 13.68-117.85 4.56-90.65-9.12-18.13-9.12-9.07-27.37v-310.19l-4.53-82.11 4.53-155.09 13.6-9.12-13.6-4.56 4.53-36.49-4.53-18.25v-31.93l27.2 4.56 9.07-13.68h-36.26v-27.37l4.53-4.56v-45.62l-4.53-31.93v-68.42l9.07-18.25 31.73 4.56-4.53-18.25h9.07l-9.07-13.68-13.6 13.68h-22.66v-27.37l-40.79 4.56-18.13-4.56h-49.86l-67.99 4.56-49.86-13.68v9.12l-13.6 4.56-9.07 63.86 4.53 209.83-4.53 45.62v45.62l-9.07 95.79-13.6 36.49v45.62l-13.6 31.93-13.6 4.56 4.53 13.68-13.6 22.81-18.13 27.37-45.33 91.23-4.53 31.93h-27.2l-4.53 22.81-13.6 9.12h-18.13l-9.07 31.93h-13.6v13.68h-31.73v22.81l-27.2-4.56-4.53 18.25-31.73 13.68-27.2 22.81-81.59 27.37-104.25 22.81-9.07-4.56v-13.68h-31.73v13.68l-49.86 9.12-27.2-4.56-95.19-4.56-99.72-18.25-45.33-22.81-49.86-4.56-18.13-22.81v-18.25h-31.73l-18.13-9.12-4.53-9.12h-9.07v-13.68h-31.73l-18.13-36.49-22.66-4.56-9.07-27.37-40.79-31.93-22.66-54.74-27.2-54.74-13.6-31.93-9.07-13.68-13.6 22.81-18.13 50.18-31.73 27.37-18.13 22.81-13.6 4.56-9.07 41.05h-13.6l-4.53 18.25h-9.07l-27.2 31.93-36.26 27.37-31.73 22.81-22.66 4.56-4.53 22.81-22.66 9.12-18.13-4.56-22.66 22.81-31.73 13.68-45.33 9.12-18.13 13.68-45.33 4.56-9.07 4.56h-58.92l-22.66 13.68-67.99-4.56-45.33-4.56-22.66-4.56-40.79 4.56-67.99-13.68h-27.2v-18.25h-45.33l-108.78-50.18-22.66-13.68-22.66-22.81-31.73-9.12v-13.68h-13.6v-13.68l-22.66-4.56-22.66-36.49-18.13-18.25-31.73-36.49-36.26-41.05-9.07-41.05-22.66-27.37-9.07-27.37-13.6-22.81-13.6-68.42-4.53-4.56v-22.81l13.6-9.12h-22.66l-9.07-200.71v-91.23l22.66-104.92 22.66-72.99 31.73-72.99 54.39-95.79 99.72-100.36 45.33-31.93 99.72-54.74 72.52-27.37 86.12-22.81 18.13-4.56h58.92l9.07-4.56 49.86-4.56Zm3159.26 59.3 4.53 9.12zm-874.8 54.74v22.81l9.07 9.12h13.6v-22.81l-22.66-9.12Zm1223.82 278.26 4.53 9.12zm-3617.06 9.12-9.07 13.68h22.66v-13.68h-13.6Zm117.84 18.25-49.86 13.68-45.33 4.56v18.25l-22.66-9.12-18.13 36.49-27.2 22.81-36.26 72.99-4.53 36.49-9.07 13.68 4.53 31.93v36.49l-9.07 18.25 9.07 4.56-4.53 22.81v18.25l9.07 22.81 4.53 54.74 18.13 50.18 40.79 41.05 13.6 27.37 40.79 4.56v18.25l45.33 9.12 4.53 4.56 72.52 4.56h18.13l9.07-9.12 40.79-13.68 45.33-41.05 31.73-45.62 27.2-63.86 18.13-45.62 18.13-18.25h27.2l9.07 4.56h258.36l18.13-9.12 9.07-27.37 13.6-4.56-9.07-9.12-9.07-45.62 4.53-22.81-22.66-4.56-58.92-4.56h-49.86l-40.79 4.56-31.73-9.12-22.66 9.12-13.6-4.56-113.32-4.56v-31.93l-13.6-27.37-4.53-22.81h-13.6l-9.07-41.05-9.07-13.68h-13.6l-4.53-27.37h-9.07v9.12l-58.92-45.62-58.92-13.68h-18.13Zm3213.66 59.3 4.53 9.12zm-22.66 86.67 4.53 9.12zm-3408.56 13.68v13.68l13.6-9.12zm3549.07 27.37-22.66 13.68v41.05l18.13-4.56 13.6-22.81 9.07-9.12v-18.25h-18.13Zm-2937.16 13.69 4.53 9.12zm213.03 86.67v18.25l9.07-9.12-9.07-9.12Zm-852.14 22.81v18.25h9.07l-4.53-18.25h-4.53Zm969.99 159.65v18.25h13.6l4.53-13.68-18.13-4.56Zm326.35 36.49-13.6 18.25 4.53 9.12 18.13-13.68v-13.68h-9.07Zm707.1 4.57-4.53 18.25-13.6 4.56v9.12l31.73-9.12v-22.81zm1477.64 95.79v13.68h9.07v-13.68zm-2366.04 273.7 4.53 9.12zm-4.54 9.12 4.53 9.12zm444.2 50.18 4.53 22.81h9.07l-4.53-18.25zM1849.33 0h31.73l18.13 9.12 9.07 27.37 13.6 4.56 9.07 31.93-4.53 9.12 18.13 4.56 9.07 41.05 22.66 27.37 4.53 9.12v27.37l18.13 9.12 27.2 59.3-4.53 18.25h18.13l18.13 45.62 18.13 36.49 18.13 13.68v13.68h9.07l4.53 22.81 4.53 27.37h18.13l-4.53 31.93 22.66 13.68 4.53 31.93h22.66l13.6 13.68 27.2-13.68 49.86-9.12 22.66-9.12 4.53 18.25h9.07v-13.68h13.6v-9.12l63.46-4.56 4.53-4.56 77.06-9.12 22.66-4.56v-27.37h-9.07v-59.3l4.53-4.56-4.53-31.93-4.53-36.49v-82.11l9.07-27.37 22.66-22.81 22.66-9.12 149.58-4.56h113.32l45.33 4.56 126.91-4.56h86.12l199.44 4.56 4.53 4.56 67.99 4.56v13.68l18.13-9.12 27.2-4.56h158.64l18.13-9.12 95.19-4.56h117.85l27.2 9.12v9.12h13.6l-4.53 22.81 22.66 4.56 9.07 13.68-4.53 41.05 4.53 13.68-22.66 27.37v9.12l22.66 9.12-18.13 45.62 9.07 4.56 4.53 27.37-4.53 22.81 9.07 22.81v31.93l-9.07 13.68 4.53 22.81-4.53 22.81-22.66-4.56v22.81l-67.99 9.12h-58.92l-49.86-4.56-13.6 4.56-36.26-18.25v18.25h-108.78l-72.52 4.56-13.6 13.68v136.85l4.53 41.05v91.23l-4.53 22.81v31.93l4.53 41.05-4.53 13.68v18.25l-4.53 9.12h-13.6v9.12l18.13 9.12v77.55l4.53 118.6-4.53 4.56v54.74l4.53 31.93v72.99l-4.53 82.11-4.53 18.25-9.07 4.56-4.53 18.25h-31.73l-18.13 9.12-77.06-4.56-36.26 4.56h-104.25l-27.2 4.56 4.53-13.68-22.66 9.12h-54.39l-18.13 4.56-49.86-31.93v-150.53l9.07-4.56-9.07-4.56-9.07-41.05 9.07-13.68v-54.74l-9.07-72.99v-41.05l4.53-36.49 4.53-264.57 13.6-36.49h-13.6l-4.53-168.78-9.07-18.25h-40.79l-4.53-9.12-22.66 4.56h-27.2l-22.66 22.81-49.86 45.62-72.52 54.74-22.66 13.68-22.66 22.81-27.2 18.25-13.6 4.56-18.13 27.37h-9.07v22.81h-22.66l-13.6-9.12 4.53 22.81-27.2 18.25-40.79 22.81-4.53 18.25h-13.6v13.68h-27.2v22.81l-22.66-4.56-4.53 18.25-22.66 13.68 13.6 4.56 13.6 27.37v18.25l13.6 9.12 4.53 27.37 13.6 13.68v22.81l-18.13 18.25h27.2l9.07 18.25 13.6 4.56 4.53 36.49 4.53 18.25h22.66l4.53 50.18 22.66 18.25 4.53 18.25-9.07 13.68 22.66 9.12 9.07 27.37v36.49l18.13 4.56 4.53 13.68 18.13 4.56-4.53 31.93h9.07l18.13 31.93 9.07 13.68-4.53 18.25 13.6 13.68-4.53 36.49-4.53 13.68h-40.79l-9.07-9.12-31.73-9.12-9.07-18.25-72.52-22.81-4.53-18.25-36.26-4.56-22.66-13.68-4.53-13.68h-27.2l-45.33-27.37-4.53-13.68-40.79-9.12-22.66-13.68-27.2-9.12-4.53-13.68h-18.13l-49.86-18.25-49.86-31.93v-13.68l-31.73 4.56v-22.81l-27.2 4.56-18.13-13.68h-18.13l-31.73 36.49-49.86 31.93-36.26 18.25-22.66 22.81h-13.6v18.25l-27.2 13.68-40.79 36.49-67.99 45.62-13.6 4.56-9.07 13.68h-18.13l-4.53 22.81-40.79 13.68-9.07 9.12h-18.13l-4.53-13.68v-31.93l9.07-22.81v-109.48l22.66-104.92 9.07-95.79 9.07-27.37v-63.86l-18.13-18.25-22.66-13.68-4.53-9.12-22.66-4.56-22.66-18.25-22.66-4.56-13.6-18.25-40.79-4.56v-13.68l-22.66-4.56-27.2-18.25-13.6-4.56v118.6l-4.53 22.81v41.05l-4.53 31.93 9.07 9.12v291.94l-4.53 18.25 4.53 27.37-13.6 13.68-4.53 13.68-36.26 9.12-95.19 4.56v-13.68l-58.92 9.12h-54.39l-22.66-13.68v22.81l-27.2-4.56-18.13-9.12h-45.33l-18.13 9.12-36.26-4.56-22.66-13.68-9.07-22.81v-18.25h-13.6l-22.66-22.81v-13.68h-13.6l-9.07-41.05-22.66-13.68-4.53-31.93-18.13-4.56v-31.93l-18.13-4.56-4.53-13.68-18.13-9.12-13.6-41.05-36.26-54.74-18.13-18.25-13.6-36.49-13.6-4.56-9.07-27.37-4.53-31.93-31.73-13.68-13.6-22.81-13.6-36.49-4.53-27.37-22.66-4.56-22.66-31.93-27.2-4.56 4.53 323.87v31.93l4.53 13.68v63.86l-4.53 27.37-4.53 95.79-27.2 36.49-4.53 9.12-18.13-4.56H303.79l-4.53-4.56-9.07 9.12H222.2l-31.73-13.68-22.66-22.81-4.53-27.37 4.53-50.18 4.53-214.4v-127.73l-9.07-9.12 9.07-13.68-4.53-68.42v-59.3l4.53-22.81v-36.49l13.6-22.81h-13.6v-31.93l-4.53-13.68V574.79l9.07-86.67-13.6-31.93 4.53-118.6 4.53-59.3-4.53-18.25v-36.49l13.6-36.49 22.66-13.68h45.33l4.53-4.56h86.12v22.81h9.07v-13.68l13.6-9.12 22.66-4.56H498.7l36.26 9.12 49.86-9.12 36.26 18.25 13.6 4.56v18.25l22.66 4.56v45.62H680v22.81h13.6l18.13 41.05 18.13 22.81 4.53 27.37v13.68l27.2 9.12 18.13 27.37 9.07 4.56 9.07 27.37v27.37h22.66l4.53 31.93 18.13 18.25v27.37l27.2 9.12 27.2 36.49 4.53 18.25 31.73 50.18 18.13 13.68 4.53 22.81 22.66 31.93v9.12l31.73 9.12 9.07-9.12 9.07-36.49-4.53-4.56V583.94l-9.07-59.3 18.13-9.12 4.53-9.12h-22.66V273.76l4.53-4.56v-27.37l-4.53-13.68 22.66-41.05 18.13-9.12 36.26-4.56 4.53-4.56 40.79 4.56h104.25l4.53-4.56h72.52l4.53 18.25 4.53-9.12 22.66-9.12 18.13 4.56 18.13 18.25 9.07 54.74 4.53 22.81-9.07 22.81 4.53 9.12v27.37h-18.13l18.13 22.81 4.53 346.68 22.66-9.12h40.79l99.72-27.37 77.06-18.25 54.39-22.81 9.07-13.68 31.73-145.97 4.53-45.62h13.6l-4.53-9.12v-31.93l18.13-95.79 27.2-141.41 22.66-82.11 9.07-36.49L1849.41.1Zm1350.73 273.7 4.53 27.37 18.13-9.12V273.7zm-1196.62 13.68 4.53 9.12zM208.5 424.23l-9.07 13.68h13.6zm3494.68 109.48 4.53 18.25 9.07 4.56-4.53-22.81zM779.62 565.64v13.68l9.07-13.68zm593.78 77.55-9.07 13.68 13.6-4.56zm-575.65 31.93v22.81h13.6l-4.53-18.25zm675.36 31.93 4.53 18.25 4.53-18.25h-9.07Zm1033.45 54.74v9.12l18.13-4.56zm-281.02 82.11-4.53 18.25 18.13-4.56-4.53-13.68h-9.07ZM190.37 1117.6l4.53 9.12zm1908.25 72.98-4.53 9.12 13.6-4.56zM299.16 1236.2l4.53 18.25h18.13v-18.25zm1790.4 0 4.53 9.12zm417 54.74 4.53 9.12zm-1654.42 9.12 4.53 9.12zM8961.07 155.09h45.33l45.33 4.56 9.07 9.12 40.79 9.12 40.79 22.81 9.07 9.12h13.6l22.66 22.81 13.6 22.81 22.66 22.81 18.13 27.37 9.07 27.37 18.13 22.81v31.93l13.6 36.49v45.62l-4.53 50.18-13.6 18.25-9.07 45.62-22.66 27.37-4.53 18.25-18.13 9.12-18.13 31.93-36.26 31.93-22.66 13.68-27.2 9.12-27.2 13.68-31.73 13.68h-104.25l-31.73-9.12-40.79-4.56-22.66-18.25-49.86-22.81-40.79-41.05-18.13-22.81-9.07-4.56-13.6-31.93-13.6-27.37-9.07-13.68V533.7l-9.07-13.68 4.53-22.81-4.53-31.93-9.07-27.37 9.07-27.37 9.07-45.62 4.53-4.56 9.07-41.05 27.2-41.05 27.2-31.93 18.13-18.25 13.6-4.56 22.66-22.81 31.73-13.68 9.07-9.12 31.73-9.12 27.2-9.12h31.73l13.6-4.56Zm9.07 54.74-54.39 4.56-36.26 18.25v9.12l-31.73 4.56-22.66 22.81-31.73 27.37-13.6 27.37-22.66 31.93-4.53 22.81-4.53 4.56-4.53 31.93-4.53 18.25v77.55l13.6 31.93 18.13 22.81 13.6 31.93 22.66 22.81 4.53 13.68 45.33 22.81 22.66 18.25 49.86 13.68 18.13 4.56 31.73 4.56 31.73-4.56 18.13 4.56 22.66-13.68 27.2-4.56 4.53-13.68 22.66-4.56 27.2-13.68 27.2-31.93 27.2-36.49 22.66-36.49 9.07-41.05 4.53-54.74-4.53-13.68-4.53-50.18-13.6-22.81-13.6-31.93-13.6-27.37-27.2-13.68-13.6-27.37-27.2-4.56v-9.12l-67.99-27.37-45.33-4.56-22.66-4.56Z"/><path d="M8970.14 273.7h63.46l4.53 13.68h36.26l13.6 18.25 22.66 9.12 13.6 18.25 13.6 31.93 9.07 31.93v9.12h-63.46l-22.66-9.12-18.13-31.93-22.66-13.68h-67.99l-36.26 31.93-9.07 22.81-4.53 22.81v59.3l22.66 45.62 36.26 22.81h31.73l27.2 4.56 22.66-22.81 18.13-27.37 9.07-9.12 40.79 4.56 27.2-4.56 9.07 4.56-4.53 45.62-22.66 27.37h-9.07l-9.07 18.25-31.73 27.37-13.6 4.56-63.46 4.56-22.66 4.56-13.6-4.56-45.33-9.12-9.07-4.56v-9.12l-27.2-9.12-22.66-22.81-13.6-22.81-13.6-13.68v-22.81l-9.07-13.68 4.53-18.25-9.07-45.62v-31.93l13.6-22.81 9.07-31.93 13.6-13.68 13.6-27.37 31.73-18.25 36.26-18.25 40.79-4.56Z"/></svg>